<svg width="27" height="20" viewBox="0 0 27 20" fill="none" xmlns="http://www.w3.org/2000/svg">
<path d="M15.9508 0.302495C15.2602 0.117439 14.5504 0.527247 14.3653 1.21785L9.83852 18.112C9.65351 18.8026 10.0633 19.5125 10.7539 19.6975C11.4445 19.8825 12.1543 19.4727 12.3393 18.7821L16.8661 1.88793C17.0512 1.19737 16.6413 0.487511 15.9508 0.302495Z" fill="#D9D9D9"/>
<path d="M8.44314 3.57363C7.92866 3.05915 7.09455 3.05915 6.58006 3.57363L1.13449 9.0192C1.12516 9.02763 1.11594 9.03618 1.10681 9.04488C1.09913 9.05221 1.09153 9.05961 1.08397 9.06717C0.826074 9.32504 0.697473 9.66325 0.698123 10.0013C0.698123 10.0525 0.701096 10.1037 0.707023 10.1546C0.740163 10.439 0.865791 10.7146 1.08397 10.9328C1.09318 10.942 1.10248 10.9511 1.11189 10.9599C1.11937 10.967 1.12689 10.9739 1.13449 10.9808L6.58006 16.4263C7.09455 16.9408 7.92866 16.9408 8.44314 16.4263C8.95763 15.9119 8.95763 15.0778 8.44314 14.5633L3.87984 10L8.44314 5.43671C8.95763 4.92223 8.95763 4.08812 8.44314 3.57363Z" fill="#D9D9D9"/>
<path d="M18.2616 16.4263C18.776 16.9408 19.6102 16.9408 20.1246 16.4263L25.5702 10.9807C25.5874 10.9653 25.6042 10.9493 25.6207 10.9328C25.8792 10.6743 26.0079 10.3351 26.0066 9.99635C26.006 9.65999 25.8773 9.32382 25.6207 9.06717C25.6043 9.05071 25.5875 9.03476 25.5704 9.01936L20.1246 3.57363C19.6102 3.05915 18.776 3.05915 18.2616 3.57363C17.7471 4.08812 17.7471 4.92227 18.2616 5.43671L22.8248 10L18.2616 14.5633C17.7471 15.0778 17.7471 15.9119 18.2616 16.4263Z" fill="#D9D9D9"/>
</svg>
