<svg width="24" height="24" viewBox="0 0 24 24" fill="none" xmlns="http://www.w3.org/2000/svg">
<path d="M10.2804 6.80431C8.45761 6.80431 6.97996 5.28113 6.97996 3.40216C6.97996 1.52318 8.45761 0 10.2804 0C12.1032 0 13.5809 1.52318 13.5809 3.40216C13.5809 5.28113 12.1032 6.80431 10.2804 6.80431Z" fill="white"/>
<path d="M18.8341 15.4206C17.0113 15.4206 15.5336 13.8975 15.5336 12.0185C15.5336 10.1395 17.0113 8.61633 18.8341 8.61633C20.6569 8.61633 22.1345 10.1395 22.1345 12.0185C22.1345 13.8975 20.6569 15.4206 18.8341 15.4206Z" fill="white"/>
<path d="M7.67713 24C5.85433 24 4.37668 22.4768 4.37668 20.5978C4.37668 18.7189 5.85433 17.1957 7.67713 17.1957C9.49993 17.1957 10.9776 18.7189 10.9776 20.5978C10.9776 22.4768 9.49993 24 7.67713 24Z" fill="white"/>
<path d="M5.98073 3.40216C5.98073 4.1501 6.16024 4.85481 6.47726 5.47304H1.97309C-0.609866 5.47304 -0.609866 1.33128 1.97309 1.33128H6.47726C6.16024 1.9495 5.98073 2.65422 5.98073 3.40216Z" fill="white"/>
<path d="M22.0628 5.47304H14.0941C14.4111 4.85481 14.5906 4.1501 14.5906 3.40216C14.5906 2.65422 14.4111 1.9495 14.0941 1.33128H22.0628C24.6457 1.33128 24.6457 5.47304 22.0628 5.47304Z" fill="white"/>
<path d="M15.0069 14.0524C14.7016 13.4431 14.5291 12.7516 14.5291 12.0185C14.5291 11.2556 14.7159 10.5377 15.0448 9.91063H1.93722C-0.64574 9.91063 -0.64574 14.0524 1.93722 14.0524H15.0069Z" fill="white"/>
<path d="M22.6734 10.0091C24.3801 10.5685 24.3942 13.3433 22.7159 13.9394C22.9871 13.3582 23.139 12.7066 23.139 12.0185C23.139 11.2952 22.9712 10.6124 22.6734 10.0091Z" fill="white"/>
<path d="M3.9046 22.6317C3.58758 22.0135 3.40807 21.3088 3.40807 20.5609C3.40807 19.8129 3.58758 19.1082 3.9046 18.49H1.97309C-0.609866 18.49 -0.609866 22.6317 1.97309 22.6317H3.9046Z" fill="white"/>
<path d="M22.0628 22.6317H11.5214C11.8384 22.0135 12.0179 21.3088 12.0179 20.5609C12.0179 19.8129 11.8384 19.1082 11.5214 18.49H22.0628C24.6457 18.49 24.6457 22.6317 22.0628 22.6317Z" fill="white"/>
</svg>
